<svg width="32" height="32" viewBox="0 0 32 32" fill="none" xmlns="http://www.w3.org/2000/svg">
<path d="M29.1427 16.6467L25.5307 10.6267C25.052 9.82937 24.176 9.33337 23.2453 9.33337H20V6.66671C20 5.92937 19.404 5.33337 18.6667 5.33337H5.33334C3.86267 5.33337 2.66667 6.52937 2.66667 8.00004V21.3334C2.66667 22.328 3.22134 23.188 4.03067 23.6454C4.19601 26.0707 6.20001 28 8.66667 28C11.012 28 12.9387 26.2547 13.2653 24H17.4013C17.728 26.2547 19.6547 28 22 28C24.3453 28 26.272 26.2547 26.5987 24H26.6667C28.1373 24 29.3333 22.804 29.3333 21.3334V17.3334C29.3333 17.0907 29.268 16.8547 29.1427 16.6467ZM8.66667 25.3334C7.56401 25.3334 6.66667 24.436 6.66667 23.3334C6.66667 22.2307 7.56401 21.3334 8.66667 21.3334C9.76934 21.3334 10.6667 22.2307 10.6667 23.3334C10.6667 24.436 9.76934 25.3334 8.66667 25.3334ZM16 14.6667H13.3333V17.3334H10.6667V14.6667H8.00001V12H10.6667V9.33337H13.3333V12H16V14.6667ZM22 25.3334C20.8973 25.3334 20 24.436 20 23.3334C20 22.2307 20.8973 21.3334 22 21.3334C23.1027 21.3334 24 22.2307 24 23.3334C24 24.436 23.1027 25.3334 22 25.3334ZM20 16V12H23.2453L25.6453 16H20Z" fill="white"/>
</svg>
