<svg width="32" height="32" viewBox="0 0 32 32" fill="none" xmlns="http://www.w3.org/2000/svg">
<path d="M25.3333 18.1146V13.3333C25.3333 9.04396 22.42 5.43063 18.4733 4.34396C18.0827 3.35996 17.128 2.66663 16 2.66663C14.872 2.66663 13.9173 3.35996 13.5267 4.34396C9.58 5.43196 6.66667 9.04396 6.66667 13.3333V18.1146L4.39067 20.3906C4.14 20.64 4 20.9786 4 21.3333V24C4 24.7373 4.596 25.3333 5.33333 25.3333H26.6667C27.404 25.3333 28 24.7373 28 24V21.3333C28 20.9786 27.86 20.64 27.6093 20.3906L25.3333 18.1146ZM25.3333 22.6666H6.66667V21.8853L8.94267 19.6093C9.19333 19.36 9.33333 19.0213 9.33333 18.6666V13.3333C9.33333 9.65729 12.324 6.66663 16 6.66663C19.676 6.66663 22.6667 9.65729 22.6667 13.3333V18.6666C22.6667 19.0213 22.8067 19.36 23.0573 19.6093L25.3333 21.8853V22.6666ZM16 29.3333C17.748 29.3333 19.2093 28.2213 19.7573 26.6666H12.2427C12.7907 28.2213 14.252 29.3333 16 29.3333Z" fill="#757575"/>
</svg>
