<svg width="28" height="28" viewBox="0 0 28 28" fill="none" xmlns="http://www.w3.org/2000/svg">
<g opacity="0.5">
<path d="M18.6667 2.33325H9.33333C5.47283 2.33325 2.33333 5.47275 2.33333 9.33325V24.4999C2.33333 25.1451 2.85483 25.6666 3.49999 25.6666H18.6667C22.5272 25.6666 25.6667 22.5271 25.6667 18.6666V9.33325C25.6667 5.47275 22.5272 2.33325 18.6667 2.33325ZM23.3333 18.6666C23.3333 21.2403 21.2403 23.3333 18.6667 23.3333H4.66666V9.33325C4.66666 6.75959 6.75966 4.66659 9.33333 4.66659H18.6667C21.2403 4.66659 23.3333 6.75959 23.3333 9.33325V18.6666Z" fill="#4C84CE"/>
<path d="M8.16667 10.5H19.8333V12.8333H8.16667V10.5ZM8.16667 15.1667H16.3333V17.5H8.16667V15.1667Z" fill="#4C84CE"/>
</g>
</svg>
