<svg width="28" height="28" viewBox="0 0 28 28" fill="none" xmlns="http://www.w3.org/2000/svg">
<g opacity="0.5">
<path d="M13.3233 25.4509C13.5263 25.5944 13.7632 25.6667 14 25.6667C14.2368 25.6667 14.4737 25.5944 14.6767 25.4509C15.0313 25.1977 23.3672 19.18 23.3333 11.6667C23.3333 6.52054 19.1462 2.33337 14 2.33337C8.85384 2.33337 4.66667 6.52054 4.66667 11.662C4.63283 19.18 12.9687 25.1977 13.3233 25.4509ZM14 4.66671C17.8605 4.66671 21 7.80621 21 11.6714C21.0245 16.849 15.8807 21.4982 14 23.0242C12.1205 21.4982 6.9755 16.849 7 11.6667C7 7.80621 10.1395 4.66671 14 4.66671Z" fill="#4C84CE"/>
<circle cx="14" cy="12" r="3" fill="#4C84CE"/>
</g>
</svg>
