<svg width="28" height="28" viewBox="0 0 28 28" fill="none" xmlns="http://www.w3.org/2000/svg">
<path d="M24.5 5.83333C24.5 4.5465 23.4535 3.5 22.1667 3.5H5.83333C4.5465 3.5 3.5 4.5465 3.5 5.83333V22.1667C3.5 23.4535 4.5465 24.5 5.83333 24.5H22.1667C23.4535 24.5 24.5 23.4535 24.5 22.1667V5.83333ZM5.83333 22.1667V5.83333H22.1667L22.169 22.1667H5.83333Z" fill="#A3A3A3"/>
<path d="M8.16666 8.16663H10.4977V10.5H8.16666V8.16663ZM12.8333 8.16663H19.8333V10.5H12.8333V8.16663ZM8.16666 12.8333H10.4977V15.1666H8.16666V12.8333ZM12.8333 12.8333H19.8333V15.1666H12.8333V12.8333ZM8.16666 17.5H10.4977V19.8333H8.16666V17.5ZM12.8333 17.5H19.8333V19.8333H12.8333V17.5Z" fill="#A3A3A3"/>
</svg>
