<svg width="29" height="28" viewBox="0 0 29 28" fill="none" xmlns="http://www.w3.org/2000/svg">
<path d="M14.75 2.33337C11.5335 2.33337 8.91667 4.95021 8.91667 8.16671C8.91667 11.3832 11.5335 14 14.75 14C17.9665 14 20.5833 11.3832 20.5833 8.16671C20.5833 4.95021 17.9665 2.33337 14.75 2.33337ZM14.75 11.6667C12.8203 11.6667 11.25 10.0964 11.25 8.16671C11.25 6.23704 12.8203 4.66671 14.75 4.66671C16.6797 4.66671 18.25 6.23704 18.25 8.16671C18.25 10.0964 16.6797 11.6667 14.75 11.6667ZM25.25 24.5V23.3334C25.25 18.8312 21.5855 15.1667 17.0833 15.1667H12.4167C7.91333 15.1667 4.25 18.8312 4.25 23.3334V24.5H6.58333V23.3334C6.58333 20.1169 9.20017 17.5 12.4167 17.5H17.0833C20.2998 17.5 22.9167 20.1169 22.9167 23.3334V24.5H25.25Z" fill="#4A86CC"/>
</svg>
