<svg width="28" height="28" viewBox="0 0 28 28" fill="none" xmlns="http://www.w3.org/2000/svg">
<path d="M14 11.6667C15.3428 11.6667 16.3333 10.6773 16.3333 9.33333C16.3333 7.98933 15.3428 7 14 7C12.6583 7 11.6666 7.98933 11.6666 9.33333C11.6666 10.6773 12.6583 11.6667 14 11.6667ZM14 12.8333C11.4228 12.8333 9.33331 14.714 9.33331 17.0333V17.4837H18.6666V17.0333C18.6666 14.714 16.5771 12.8333 14 12.8333Z" fill="#4C84CE"/>
<path d="M22.1667 2.33337H5.83333C4.5465 2.33337 3.5 3.37987 3.5 4.66671V19.8334C3.5 21.1202 4.5465 22.1667 5.83333 22.1667H10.5L14 25.6667L17.5 22.1667H22.1667C23.4535 22.1667 24.5 21.1202 24.5 19.8334V4.66671C24.5 3.37987 23.4535 2.33337 22.1667 2.33337ZM16.3333 19.8334L14 22.1667L11.6667 19.8334H5.83333V4.66671H22.1667L22.169 19.8334H16.3333Z" fill="#4C84CE"/>
</svg>
