<svg width="0" height="0" viewBox="0 0 20 20" fill="none" xmlns="http://www.w3.org/2000/svg">
<path d="M22.1667 9.33329H19.8333V12.8333H16.3333V15.1666H19.8333V18.6666H22.1667V15.1666H25.6667V12.8333H22.1667V9.33329ZM4.66667 9.33329C4.66667 11.9933 6.67333 14 9.33333 14C11.9933 14 14 11.9933 14 9.33329C14 6.67329 11.9933 4.66663 9.33333 4.66663C6.67333 4.66663 4.66667 6.67329 4.66667 9.33329ZM11.6667 9.33329C11.6667 10.7076 10.7077 11.6666 9.33333 11.6666C7.959 11.6666 7 10.7076 7 9.33329C7 7.95896 7.959 6.99996 9.33333 6.99996C10.7077 6.99996 11.6667 7.95896 11.6667 9.33329ZM4.66667 21C4.66667 19.0703 6.237 17.5 8.16667 17.5H10.5C12.4297 17.5 14 19.0703 14 21V22.1666H16.3333V21C16.3333 17.7835 13.7165 15.1666 10.5 15.1666H8.16667C4.95017 15.1666 2.33333 17.7835 2.33333 21V22.1666H4.66667V21Z" fill="#A3A3A3"/>
</svg>
